<svg xmlns="http://www.w3.org/2000/svg" viewBox="0 0 18 17.93"><defs><style>.a{fill:#000333;}</style></defs><title>Calender</title><path class="a" d="M17.23,1.62a.74.74,0,0,1,.54.23.74.74,0,0,1,.23.54v14.8a.59.59,0,0,1-.05.23.72.72,0,0,1-.12.21.69.69,0,0,1-.18.16,1,1,0,0,1-.21.1.69.69,0,0,1-.25,0H.77a.78.78,0,0,1-.54-.21A.72.72,0,0,1,0,17.19V2.39a.74.74,0,0,1,.23-.54.74.74,0,0,1,.54-.23h3V.74A.86.86,0,0,1,3.85.35.59.59,0,0,1,4.11.09.89.89,0,0,1,4.5,0a.81.81,0,0,1,.55.21.72.72,0,0,1,.23.53v.88h7.41V.74a.72.72,0,0,1,.23-.53A.79.79,0,0,1,13.47,0,.68.68,0,0,1,14,.21a.75.75,0,0,1,.22.53v.88Zm-.77,14.83V7.21h-15v9.24Zm0-10.75V3.16H14.2v.67a.87.87,0,0,1-.24.53.71.71,0,0,1-.5.21.79.79,0,0,1-.77-.77V3.16H5.27v.67a.53.53,0,0,1-.07.28A.73.73,0,0,1,5,4.34a.63.63,0,0,1-.23.16.64.64,0,0,1-.31.07A.7.7,0,0,1,4,4.34a.78.78,0,0,1-.21-.54V3.16H1.48V5.7ZM6.58,14.84a.45.45,0,0,1-.37.17.52.52,0,0,1-.39-.17.59.59,0,0,1-.16-.39V9.77H5.38A.58.58,0,0,1,5,9.62a.52.52,0,0,1-.17-.39A.54.54,0,0,1,5,8.83a.57.57,0,0,1,.39-.18h.85a.47.47,0,0,1,.36.18.55.55,0,0,1,.16.39v5.23a.52.52,0,0,1-.17.39Zm6,.17H9a.5.5,0,0,1-.49-.35.52.52,0,0,1,.1-.6l2.71-2.74a1.08,1.08,0,0,0,.18-.6,1,1,0,0,0-1.94,0,.51.51,0,0,1-.17.4.56.56,0,0,1-.78,0,.51.51,0,0,1-.17-.4,2,2,0,0,1,.61-1.46,2.06,2.06,0,0,1,1.48-.62A2,2,0,0,1,12,9.26a2,2,0,0,1,.6,1.46,1.9,1.9,0,0,1-.46,1.33L10.3,13.89h2.32a.57.57,0,0,1,.39.16.52.52,0,0,1,.09.66,1,1,0,0,1-.21.21.44.44,0,0,1-.27.09Z"/></svg>