<svg xmlns="http://www.w3.org/2000/svg" width="13.884" height="18.538" viewBox="0 0 13.884 18.538"><defs><style>.a{fill:#b1bcea;}</style></defs><g transform="translate(-64.267)"><path class="a" d="M140.112,0H134.6a2.129,2.129,0,0,0-1.945,1.124h9.4A2.129,2.129,0,0,0,140.112,0Z" transform="translate(-66.149)"/><path class="a" d="M76.154,64.267H66.264a2.013,2.013,0,0,0-2,2.024V80.147a.547.547,0,0,0,.543.55h3.529V78.083a2.013,2.013,0,0,1,2-2.024h1.745a2.013,2.013,0,0,1,2,2.024V80.7h3.529a.547.547,0,0,0,.543-.55V66.291A2.013,2.013,0,0,0,76.154,64.267ZM68.1,74.64a.538.538,0,0,1-.768,0,.555.555,0,0,1,0-.778.537.537,0,0,1,.768,0,.556.556,0,0,1,0,.778Zm0-2.358a.537.537,0,0,1-.768,0,.555.555,0,0,1,0-.778.538.538,0,0,1,.768,0,.556.556,0,0,1,0,.778Zm0-2.358a.538.538,0,0,1-.768,0,.555.555,0,0,1,0-.779.538.538,0,0,1,.768,0,.556.556,0,0,1,0,.779Zm0-2.358a.538.538,0,0,1-.768,0,.556.556,0,0,1,0-.778.538.538,0,0,1,.768,0,.556.556,0,0,1,0,.778ZM70.43,74.64a.538.538,0,0,1-.768,0,.556.556,0,0,1,0-.778.537.537,0,0,1,.768,0,.555.555,0,0,1,0,.778Zm0-2.358a.538.538,0,0,1-.768,0,.556.556,0,0,1,0-.778.539.539,0,0,1,.768,0,.556.556,0,0,1,0,.778Zm0-2.358a.538.538,0,0,1-.768,0,.556.556,0,0,1,0-.779.539.539,0,0,1,.768,0,.556.556,0,0,1,0,.779Zm0-2.358a.539.539,0,0,1-.768,0,.556.556,0,0,1,0-.778.538.538,0,0,1,.768,0,.556.556,0,0,1,0,.778Zm2.327,7.075a.538.538,0,0,1-.768,0,.556.556,0,0,1,0-.778.537.537,0,0,1,.768,0,.555.555,0,0,1,0,.778Zm0-2.358a.537.537,0,0,1-.768,0,.556.556,0,0,1,0-.778.538.538,0,0,1,.768,0,.555.555,0,0,1,0,.778Zm-.927-2.747a.559.559,0,0,1,.159-.389.538.538,0,0,1,.768,0,.556.556,0,0,1,0,.779.538.538,0,0,1-.768,0A.558.558,0,0,1,71.83,69.534Zm.927-1.969a.538.538,0,0,1-.768,0,.556.556,0,0,1,0-.778.537.537,0,0,1,.768,0,.555.555,0,0,1,0,.778Zm2.327,7.075a.538.538,0,0,1-.768,0,.555.555,0,0,1,0-.778.537.537,0,0,1,.768,0,.556.556,0,0,1,0,.778Zm0-2.358a.537.537,0,0,1-.768,0,.555.555,0,0,1,0-.778.538.538,0,0,1,.768,0,.556.556,0,0,1,0,.778Zm0-2.358a.538.538,0,0,1-.768,0,.555.555,0,0,1,0-.779.538.538,0,0,1,.768,0,.556.556,0,0,1,0,.779Zm0-2.358a.538.538,0,0,1-.768,0,.555.555,0,0,1,0-.778.537.537,0,0,1,.768,0,.556.556,0,0,1,0,.778Z" transform="translate(0 -62.159)"/><path class="a" d="M271.3,415.6H271v3.162h1.124v-2.336A.826.826,0,0,0,271.3,415.6Z" transform="translate(-199.18 -400.224)"/><path class="a" d="M206.733,416.425v2.336h1.124V415.6h-.3A.826.826,0,0,0,206.733,416.425Z" transform="translate(-137.26 -400.224)"/></g></svg>