<svg xmlns="http://www.w3.org/2000/svg" viewBox="0 0 16 18"><defs><style>.a{fill:#000333;}</style></defs><title>Customers</title><path class="a" d="M15,0H1A1,1,0,0,0,0,1V5.37l1.57.54A1.56,1.56,0,0,0,3,5.88a8.77,8.77,0,0,1,3-1.32,1.82,1.82,0,0,1,1.4.56s-1.44.76-2.07,1.2a1.54,1.54,0,0,0-.74,1.34A1.56,1.56,0,0,0,6.09,9.22,2.34,2.34,0,0,0,7,8.91l1.38-.63a1,1,0,0,1,1,.19l3,3h0a.69.69,0,0,1-1,1s-1.14-1.17-1.22-1.08,1.05,1.29,1.05,1.3a.68.68,0,0,1-1,.94,11.87,11.87,0,0,0-1.6-1.31c-.09.09,1.12,1.17,1.12,1.17l.09.09a.69.69,0,0,1,0,1,.7.7,0,0,1-1,0s-1.24-1.3-1.32-1.22.88,1.08.89,1.09a.69.69,0,0,1-1,1c-.14-.14-.36-.39-.37-.4a1.58,1.58,0,0,0-.41-1.37,1.62,1.62,0,0,0-.68-.4,1.55,1.55,0,0,0-1-1.13,1.52,1.52,0,0,0-1-1,1.6,1.6,0,0,0-.38-.67,1.72,1.72,0,0,0-2.38,0,1.7,1.7,0,0,0-.44.7,8.67,8.67,0,0,0-.85-.3V17a1,1,0,0,0,1,1H15a1,1,0,0,0,1-1V1A1,1,0,0,0,15,0ZM6.16,15.47c-.39.38-1.18.55-1.53.16s-.08-.74,0-1.06c-.32.1-.83.3-1.12-.07s-.06-.67,0-1c-.3.07-.73.31-1-.09s-.06-.67,0-1c-.3.07-.7.31-1-.08s-.1-1.07.29-1.45a.94.94,0,0,1,1.32,0,.87.87,0,0,1,.19.84.88.88,0,0,1,.84.22.88.88,0,0,1,.18.84.83.83,0,0,1,.6,0A.84.84,0,0,1,5.34,14a.92.92,0,0,1,.28-.05,1,1,0,0,1,.63.25A.92.92,0,0,1,6.16,15.47Zm9.56-4.81s-1,.2-1.22.22a1.43,1.43,0,0,1-1.35-.22c-.73-.7-3.34-3.3-3.34-3.3A1,1,0,0,0,8.64,7.3C8,7.65,7,8.17,6.58,8.37A1,1,0,0,1,5.28,8a1,1,0,0,1-.12-.41,1,1,0,0,1,.59-.84c.93-.57,2.91-1.68,3.73-2.11.5-.27.86-.29,1.54.29l1.6,1.35a.78.78,0,0,0,.64.13l2.46-.54Z"/></svg>