<svg xmlns="http://www.w3.org/2000/svg" viewBox="0 0 18.47 18.51"><defs><style>.a{fill:#000333;}</style></defs><title>Edit</title><path class="a" d="M13.89,9.89V17H1.55V4.65H8.64L10.17,3.1H0V18.51H15.43V8.36ZM17.81.69A2.07,2.07,0,0,0,16.19,0a2.21,2.21,0,0,0-1.64.69L6.73,8.49v.24l-.57,2.7L6,12.54l1.11-.19,2.7-.58H10l.21-.19L17.84,4a2.4,2.4,0,0,0,.63-1.65A2.2,2.2,0,0,0,17.81.69Zm-.94,2a.57.57,0,0,1-.14.13L9.26,10.33l-1.35.29L8.2,9.26,15.67,1.8a.72.72,0,0,1,.52-.24.73.73,0,0,1,.54.24.68.68,0,0,1,.14.93Z"/></svg>