<svg xmlns="http://www.w3.org/2000/svg" viewBox="0 0 16.5 16.52"><defs><style>.a{fill:#000333;}</style></defs><title>General</title><path class="a" d="M16.49,12.38a.66.66,0,0,1-.39.64L8.6,16.44a.8.8,0,0,1-.71,0L.38,13a.73.73,0,0,1,0-1.28l1.87-.85,5.22,2.36a2.27,2.27,0,0,0,.77.17A2.32,2.32,0,0,0,9,13.25l5.22-2.36,1.86.85A.66.66,0,0,1,16.49,12.38Z"/><path class="a" d="M16.49,8.27a.59.59,0,0,1-.39.63L8.6,12.32a.8.8,0,0,1-.71,0L.38,8.9A.6.6,0,0,1,0,8.27a.67.67,0,0,1,.38-.65l1.9-.85L7.47,9.13a1.87,1.87,0,0,0,.77.16A1.91,1.91,0,0,0,9,9.13l5.21-2.36,1.87.85A.66.66,0,0,1,16.49,8.27Z"/><path class="a" d="M16.49,4.13a.67.67,0,0,1-.39.66L8.6,8.19a.8.8,0,0,1-.71,0L.38,4.77A.64.64,0,0,1,0,4.13.63.63,0,0,1,.38,3.5L7.89.07a1,1,0,0,1,.71,0L16.1,3.5A.65.65,0,0,1,16.49,4.13Z"/></svg>