<svg xmlns="http://www.w3.org/2000/svg" viewBox="0 0 19.37 19.47"><defs><style>.a{fill:#000333;}</style></defs><title>Kpi</title><path class="a" d="M8.75,19.46A8.73,8.73,0,0,0,16.47,6.61h-.34L15,6.53l-.8.8a6.42,6.42,0,1,1-2.08-2.08l.72-.72-.1-1.28a1.5,1.5,0,0,1,0-.3,8.75,8.75,0,1,0-4,16.52Z"/><path class="a" d="M8.75,8.45h.17l1.62-1.61,0,0a4.31,4.31,0,1,0,2.08,2.08l0,0L11,10.54a1,1,0,0,1,0,.17A2.26,2.26,0,1,1,8.75,8.45Z"/><path class="a" d="M17.76,2.92l.52-.52a.6.6,0,0,0,0-.85h0l-.36-.36a.6.6,0,0,0-.85,0h0l-.59.6L16.35.19a.19.19,0,0,0-.2-.19A.2.2,0,0,0,16,.06L13.67,2.41a1,1,0,0,0-.3.8V3.3l.11,1.46-.84.85L11.12,7.13l0,0L9.62,8.63,9,9.29a.52.52,0,0,0-.14.32l0,.51a.5.5,0,0,0,.46.55h.07l.54,0a.49.49,0,0,0,.34-.15l.64-.64,1.48-1.47,0,0,1.52-1.52.92-.92,1.34.1h.13A1.06,1.06,0,0,0,17,5.71l2.34-2.34a.2.2,0,0,0,0-.28A.27.27,0,0,0,19.18,3Z"/></svg>