<svg xmlns="http://www.w3.org/2000/svg" viewBox="0 0 16 12"><defs><style>.a{fill:#000333;}</style></defs><title>Leads</title><path class="a" d="M15,0H1A1,1,0,0,0,0,1V11a1,1,0,0,0,1,1H15a1,1,0,0,0,1-1V1A1,1,0,0,0,15,0ZM10.87,10.51a.26.26,0,0,1-.19.07l-1.41-.43a.17.17,0,0,0-.1,0A.16.16,0,0,1,9.11,10l0-.82A.2.2,0,0,0,9,9a4.08,4.08,0,0,0-.92-.13,4.29,4.29,0,0,0-.94.1C7,9,7,9.07,7,9.17l0,.75a.16.16,0,0,1-.06.13l-.1,0-1.34.49c-.1,0-.13,0-.2-.06a1.2,1.2,0,0,1-.32-.85,1.34,1.34,0,0,1,.43-.95A2.82,2.82,0,0,1,6.5,8a5.94,5.94,0,0,1,1.57-.27A9.77,9.77,0,0,1,9.27,8a6.67,6.67,0,0,1,1.05.4,3,3,0,0,1,.68.55,1.2,1.2,0,0,1,.26.72A1.43,1.43,0,0,1,10.87,10.51ZM8,7,2,1H14Z"/></svg>