<svg xmlns="http://www.w3.org/2000/svg" viewBox="0 0 18.75 18.29"><defs><style>.a{fill:#000333;}</style></defs><title>Locatemi</title><path class="a" d="M13.69,11.3q-.45.7-1,1.47c2.91.44,4.4,1.37,4.4,1.83,0,.62-2.64,2.07-7.75,2.07S1.63,15.22,1.63,14.6c0-.46,1.48-1.39,4.4-1.83q-.53-.77-1-1.47C2.19,11.84,0,13,0,14.6,0,17,4.72,18.29,9.37,18.29S18.75,17,18.75,14.6C18.75,13,16.56,11.84,13.69,11.3Z"/><path class="a" d="M9.37,14.45a1.32,1.32,0,0,0,1.07-.54c1.59-2.18,4.42-6.33,4.42-8.5a5.49,5.49,0,0,0-11,0c0,2.17,2.82,6.32,4.42,8.5A1.31,1.31,0,0,0,9.37,14.45ZM7.09,5.3A2.28,2.28,0,1,1,9.37,7.58h0A2.28,2.28,0,0,1,7.09,5.3Z"/></svg>