<svg xmlns="http://www.w3.org/2000/svg" viewBox="0 0 15.77 18"><defs><style>.a{fill:#000333;}</style></defs><title>Notifications</title><path class="a" d="M14.82,12.55a2.58,2.58,0,0,1,.95,2.07,1.67,1.67,0,0,1-1.69,1.69H9.58A1.69,1.69,0,0,1,7.88,18a1.67,1.67,0,0,1-1.69-1.69H1.69A1.67,1.67,0,0,1,0,14.62a2.58,2.58,0,0,1,1-2.07A5.14,5.14,0,0,0,2.3,10.08a13.48,13.48,0,0,0,.51-3.9,4.83,4.83,0,0,1,.46-2A4.91,4.91,0,0,1,4.48,2.46,5.12,5.12,0,0,1,6.24,1.4,1.71,1.71,0,0,1,6.8.4,1.57,1.57,0,0,1,7.89,0,1.57,1.57,0,0,1,9,.4a1.72,1.72,0,0,1,.57,1A5,5,0,0,1,12,3.23a4.88,4.88,0,0,1,1,2.95,13.86,13.86,0,0,0,.24,2.73,11.22,11.22,0,0,0,.65,2.21,4.12,4.12,0,0,0,1,1.43ZM1.71,14.62H14.08a1,1,0,0,0-.39-.81,6.62,6.62,0,0,1-1.77-3,15.29,15.29,0,0,1-.65-4.61A3.35,3.35,0,0,0,7.89,2.81a3.21,3.21,0,0,0-1.68.45A3.53,3.53,0,0,0,5,4.49a3.25,3.25,0,0,0-.46,1.69,15.29,15.29,0,0,1-.65,4.61,6.62,6.62,0,0,1-1.77,3,1,1,0,0,0-.39.81Z"/></svg>