<svg xmlns="http://www.w3.org/2000/svg" viewBox="0 0 18.82 16.75"><defs><style>.a{fill:#000333;}</style></defs><title>Orders</title><path class="a" d="M18.8,10.65l-.34-1a.48.48,0,0,0-.26-.3.53.53,0,0,0-.39,0l-7,2.32a3.16,3.16,0,0,0-1.05-.87,3.45,3.45,0,0,0-1.34-.34L5.16.72A.93.93,0,0,0,4.79.2a1,1,0,0,0-.6-.2H.53A.5.5,0,0,0,.15.15.51.51,0,0,0,0,.52V1.57a.51.51,0,0,0,.15.37.5.5,0,0,0,.38.15H3.44l3,9.06a3.2,3.2,0,0,0-1,1.29,3,3,0,0,0-.2,1.65,3.17,3.17,0,0,0,2.53,2.6,3,3,0,0,0,1.81-.2A3,3,0,0,0,11,15.34a3.16,3.16,0,0,0,.54-1.68l7-2.32a.65.65,0,0,0,.29-.28A.53.53,0,0,0,18.8,10.65ZM9.48,14.71a1.49,1.49,0,0,1-1.11.45h0a1.57,1.57,0,0,1-1.11-2.68,1.57,1.57,0,0,1,2.22,0,1.49,1.49,0,0,1,.46,1.11A1.51,1.51,0,0,1,9.48,14.71Z"/><path class="a" d="M16.8,7.87a.48.48,0,0,1-.3.26L11.25,9.87a4.79,4.79,0,0,0-1.64-.79L7.88,3.86a.55.55,0,0,1,0-.4A.5.5,0,0,1,8.2,3.2l2-.66,1.08,3.24,2-.65L12.22,1.86l2-.66a.48.48,0,0,1,.39,0,.5.5,0,0,1,.26.29l2,5.92A.56.56,0,0,1,16.8,7.87Z"/></svg>