<svg xmlns="http://www.w3.org/2000/svg" viewBox="0 0 16 20"><defs><style>.a{fill:#000333;}</style></defs><title>Quotes</title><path class="a" d="M16,4.76V5H10.67V0h.26a1.06,1.06,0,0,1,.7.27L15.71,4.1A.88.88,0,0,1,16,4.76Z"/><path class="a" d="M10.34,6.25a1,1,0,0,1-1-.94V0H1A1,1,0,0,0,0,.94V19.06A1,1,0,0,0,1,20H15a1,1,0,0,0,1-.93h0V6.25ZM2.67,2.81A.33.33,0,0,1,3,2.5H6.34a.33.33,0,0,1,.33.31v.63a.32.32,0,0,1-.33.31H3a.32.32,0,0,1-.33-.31Zm0,3.13V5.31A.33.33,0,0,1,3,5H6.34a.33.33,0,0,1,.33.31v.63a.32.32,0,0,1-.33.31H3A.32.32,0,0,1,2.67,5.94Zm7.72,9a1.76,1.76,0,0,1-1.72,1.31v.94a.32.32,0,0,1-.33.31H7.67a.31.31,0,0,1-.33-.31v-1A2.47,2.47,0,0,1,6,15.8.29.29,0,0,1,6,15.39a.18.18,0,0,1,0-.07l.49-.44a.36.36,0,0,1,.43,0,1.08,1.08,0,0,0,.53.14H8.62a.5.5,0,0,0,.5-.51.52.52,0,0,0-.37-.5l-1.87-.53A1.75,1.75,0,0,1,7.34,10V9.06a.32.32,0,0,1,.33-.31c.85,0,1,.14,1,.31V10a2.49,2.49,0,0,1,1.31.45.29.29,0,0,1,.07.41s0,0-.05.06l-.49.44a.36.36,0,0,1-.42,0,1,1,0,0,0-.53-.15H7.38a.51.51,0,0,0-.49.51h0a.53.53,0,0,0,.37.5l1.87.52A1.77,1.77,0,0,1,10.39,14.94Z"/></svg>