<svg xmlns="http://www.w3.org/2000/svg" viewBox="0 0 16.36 18.72"><defs><style>.a{fill:#000333;}</style></defs><title>Reports</title><path class="a" d="M14.41,1.56a1.87,1.87,0,0,1,1.37.58,1.87,1.87,0,0,1,.58,1.37V16.77a1.89,1.89,0,0,1-.58,1.38,1.86,1.86,0,0,1-1.37.57H2a1.88,1.88,0,0,1-1.38-.57A1.88,1.88,0,0,1,0,16.77V3.51A1.86,1.86,0,0,1,.57,2.14,1.89,1.89,0,0,1,2,1.56H7.41V.76A.76.76,0,0,1,7.64.23.74.74,0,0,1,8.18,0a.72.72,0,0,1,.53.23.72.72,0,0,1,.23.53v.8ZM11.89,3.13H4.47L5.2,5h6Zm2.94,13.64h0V3.51a.38.38,0,0,0-.38-.38h-.84L12.42,6.07a.71.71,0,0,1-.73.5h-7a.71.71,0,0,1-.72-.5L2.79,3.13H2a.45.45,0,0,0-.31.11.39.39,0,0,0-.11.27V16.77a.31.31,0,0,0,.06.19.5.5,0,0,0,.15.14.37.37,0,0,0,.21.06H14.41a.42.42,0,0,0,.3-.12.36.36,0,0,0,.12-.27Zm-3-6.37H4.74a.72.72,0,0,1-.4-.12A1,1,0,0,1,4.05,10a.61.61,0,0,1-.11-.4.72.72,0,0,1,.23-.53.79.79,0,0,1,.57-.23h7.11a.81.81,0,0,1,.57.23.78.78,0,0,1,0,1.11A.81.81,0,0,1,11.85,10.4Zm0,4H4.74a.75.75,0,0,1-.57-.23.71.71,0,0,1-.23-.55A.75.75,0,0,1,4.17,13a.79.79,0,0,1,.57-.23h7.11a.81.81,0,0,1,.57.23.79.79,0,0,1,.23.56.75.75,0,0,1-.23.55.81.81,0,0,1-.57.23Z"/></svg>