<svg xmlns="http://www.w3.org/2000/svg" viewBox="0 0 18 18"><defs><style>.a{fill:#000333;}</style></defs><title>Settings</title><path class="a" d="M15.22,11.53v0a.47.47,0,0,0,.11.56l0,0A2.1,2.1,0,0,1,16,13.73,2.22,2.22,0,0,1,13.8,16a2.11,2.11,0,0,1-1.56-.63l-.07-.07a.52.52,0,0,0-.57-.09.45.45,0,0,0-.31.47v.15A2.22,2.22,0,0,1,9.06,18a2.22,2.22,0,0,1-2.24-2.21v-.07a.44.44,0,0,0-.31-.46.13.13,0,0,0-.07,0,.49.49,0,0,0-.57.11l0,0A2.06,2.06,0,0,1,4.28,16a2.06,2.06,0,0,1-1.57-.67h0a2.22,2.22,0,0,1,0-3.12v0l.07,0a.52.52,0,0,0,.08-.57.45.45,0,0,0-.47-.31H2.22a2.15,2.15,0,0,1-1.57-.65A2.2,2.2,0,0,1,0,9.05,2.15,2.15,0,0,1,.65,7.47a2.15,2.15,0,0,1,1.56-.65h.07a.44.44,0,0,0,.46-.31.25.25,0,0,0,0-.07.49.49,0,0,0-.11-.57l0,0A2.06,2.06,0,0,1,2,4.27a2.15,2.15,0,0,1,.65-1.58A2.17,2.17,0,0,1,4.2,2a2.12,2.12,0,0,1,1.56.64l.07.07a.54.54,0,0,0,.57.07l.14,0a.56.56,0,0,0,.24-.42V2.22A2.19,2.19,0,0,1,7.43.65,2.15,2.15,0,0,1,9,0a2.11,2.11,0,0,1,1.56.65,2.11,2.11,0,0,1,.65,1.56v.07a.6.6,0,0,0,.32.5h0a.48.48,0,0,0,.56-.11l0,0A2.06,2.06,0,0,1,13.73,2,2.22,2.22,0,0,1,16,4.2a2.15,2.15,0,0,1-.63,1.56v0l-.07,0a.5.5,0,0,0-.07.57.35.35,0,0,0,0,.14.44.44,0,0,0,.42.24h.14a2.19,2.19,0,0,1,1.57.65A2.15,2.15,0,0,1,18,9a2.13,2.13,0,0,1-.65,1.56,2.09,2.09,0,0,1-1.56.65h-.07a.6.6,0,0,0-.5.32Zm-.91,1.62A1.82,1.82,0,0,1,13.89,11a2.06,2.06,0,0,1,.74-.86,1.93,1.93,0,0,1,1.09-.34h.07a.7.7,0,0,0,.54-.23A.73.73,0,0,0,16.56,9a.78.78,0,0,0-.07-.3.68.68,0,0,0-.18-.26.63.63,0,0,0-.24-.16.69.69,0,0,0-.28,0h-.14a2.71,2.71,0,0,1-.57-.09,2.08,2.08,0,0,1-.52-.25,1.88,1.88,0,0,1-.43-.37A1.69,1.69,0,0,1,13.85,7a.52.52,0,0,1-.07-.21,1.77,1.77,0,0,1,.46-2l0-.07a.69.69,0,0,0,.24-.55.75.75,0,0,0-.23-.56.79.79,0,0,0-.56-.23.69.69,0,0,0-.54.25l0,0A1.84,1.84,0,0,1,11,4.12a2.13,2.13,0,0,1-.86-.74,1.84,1.84,0,0,1-.33-1.09V2.22a.81.81,0,0,0-.23-.55A.76.76,0,0,0,9,1.44a.73.73,0,0,0-.54.23.71.71,0,0,0-.23.55v.14a1.93,1.93,0,0,1-.34,1.09,1.9,1.9,0,0,1-.86.7.48.48,0,0,1-.21.07,1.77,1.77,0,0,1-2-.46l-.07,0a.65.65,0,0,0-.54-.24.75.75,0,0,0-.57.23.79.79,0,0,0-.23.56.73.73,0,0,0,.25.55l0,0A1.85,1.85,0,0,1,4.12,7a1.84,1.84,0,0,1-.7.9,2.16,2.16,0,0,1-1.09.37H2.22a.92.92,0,0,0-.28,0,.78.78,0,0,0-.24.16.72.72,0,0,0-.18.25.64.64,0,0,0-.07.31.76.76,0,0,0,.1.39.86.86,0,0,0,.29.28.73.73,0,0,0,.38.11h.14a1.9,1.9,0,0,1,1.09.31,1.73,1.73,0,0,1,.7.88,1.75,1.75,0,0,1-.38,2.15l0,.07a.65.65,0,0,0-.24.54.72.72,0,0,0,.22.56.72.72,0,0,0,.57.21.77.77,0,0,0,.54-.22l0,0A1.82,1.82,0,0,1,7,13.89a1.88,1.88,0,0,1,.9.7,2.12,2.12,0,0,1,.37,1.09v.1a.71.71,0,0,0,.23.55.73.73,0,0,0,.54.23.76.76,0,0,0,.55-.23.74.74,0,0,0,.22-.55v-.14a2,2,0,0,1,.32-1.09,1.79,1.79,0,0,1,.88-.7,1.73,1.73,0,0,1,2.14.39l.07,0a.67.67,0,0,0,.55.25.69.69,0,0,0,.54-.23.82.82,0,0,0,.22-.56.77.77,0,0,0-.22-.55ZM6.89,6.89a3,3,0,0,1,4.22,0,3,3,0,0,1,0,4.22,3,3,0,0,1-4.22,0,3,3,0,0,1,0-4.22Zm1,3.2A1.54,1.54,0,0,0,9,10.51,1.5,1.5,0,0,0,10.51,9,1.5,1.5,0,0,0,9,7.49,1.5,1.5,0,0,0,7.49,9a1.52,1.52,0,0,0,.42,1.09Z"/></svg>